<?xml version="1.0" encoding="UTF-8" standalone="no"?>
<svg
   xmlns:dc="http://purl.org/dc/elements/1.1/"
   xmlns:cc="http://creativecommons.org/ns#"
   xmlns:rdf="http://www.w3.org/1999/02/22-rdf-syntax-ns#"
   xmlns:svg="http://www.w3.org/2000/svg"
   xmlns="http://www.w3.org/2000/svg"
   xml:space="preserve"
   style="enable-background:new 0 0 471.936 89.922;"
   viewBox="0 0 471.936 89.922"
   height="89.922px"
   width="471.936px"
   y="0px"
   x="0px"
   id="レイヤー_1"
   version="1.1"><metadata
     id="metadata107"><rdf:RDF><cc:Work
         rdf:about=""><dc:format>image/svg+xml</dc:format><dc:type
           rdf:resource="http://purl.org/dc/dcmitype/StillImage" /><dc:title></dc:title></cc:Work></rdf:RDF></metadata><defs
     id="defs105" /><style
     type="text/css"
     id="style4617">
	.st0{fill:#325F8C;}
	.st1{fill:#9E9D9D;}
</style><g
     transform="matrix(2.0723801,0,0,2.0723801,9.2229993,7.7411582)"
     id="g4644"><path
       style="fill:#325f8c"
       class="st0"
       d="m 139.9,35.7 m 1.3,-3.3 m 7.4,-22 c 6,-2.1 12,-3.7 18.1,-4.5 C 161.4,4.8 156.2,4.3 151,4.4 l -2.4,6 z m -6.3,16 C 160.9,19.4 179.4,8.3 198.1,5.8 181,2.2 164,7.1 147,14.5 l -4.7,11.9 z m 76.5,-22 C 193.2,3.1 166.5,23.1 140.6,30.6 l 0,0.1 -0.7,1.7 0.2,0 c 0.3,0 0.7,0 1,0 l 0.4,0 0.6,0 c 22.6,0 45.5,-13.5 68.3,-21.7 3.7,-1.3 6.6,-3.5 8.4,-6.3 z m 0,6 c -17,6.8 -34.6,17.9 -52.1,21.6 13.9,1.8 27.6,-1.2 41.2,-6.7 7,-2.9 11.3,-8.7 10.9,-14.9 l 0,0 z m 0,14.5 c -6.8,3 -13.8,5.6 -20.7,7.1 3.9,0.5 7.7,0.7 11.6,0.5 5.1,-0.3 9.1,-3.6 9.1,-7.6 l 0,0 z"
       id="path4619" /><path
       style="fill:#325f8c"
       class="st0"
       d="m 63.9,32.5 1.2,-1.1 0,-27.1 c -5.9,0 -6.8,0 -12.7,0 l 0,3.2 -19.9,0 0,-3.2 -32.5,0 0,27.1 1.2,1.1 c 16,0 46.7,0 62.7,0 z"
       id="path4621" /><path
       style="fill:#9e9d9d"
       class="st1"
       d="m 150.8,0 -15,36.5 -10.1,0 -1.9,-4.7 c 0.4,-0.1 0.8,-0.2 1.3,-0.4 l 0,0 c 1.2,-0.3 2.1,-0.7 2.9,-1.1 0.8,-0.4 1.4,-0.9 1.8,-1.4 l 0.4,-0.6 -0.5,-0.5 -0.7,-0.6 -0.4,-0.4 -0.5,0.3 c 0,0 0,0 -0.1,0 -0.3,0 -0.9,-0.2 -1.5,-0.6 -0.6,-0.3 -1.2,-0.8 -2,-1.3 0.5,-0.5 1.1,-1 1.6,-1.6 0.8,-0.9 1.7,-2 2.6,-3.2 l 0.6,-0.8 -1,-0.4 -6.1,-2.2 -0.6,-0.2 -0.3,0.6 c -0.3,0.5 -0.7,1 -1.2,1.5 -0.3,0.4 -0.7,0.7 -1.1,1.1 l -0.9,-2.2 c 0.1,0 0.2,-0.1 0.2,-0.2 0.7,-0.5 1.2,-1 1.7,-1.5 l 0,0 c 0.5,-0.6 0.9,-1.3 1.2,-2.1 0.3,-0.8 0.4,-1.6 0.4,-2.6 0,-1.3 -0.3,-2.4 -0.9,-3.4 -0.6,-1 -1.4,-1.8 -2.5,-2.5 l 0,0 c -0.9,-0.6 -1.9,-1 -3,-1.3 -0.9,-0.2 -1.8,-0.4 -2.8,-0.4 l -1.6,-3.8 13.5,0 7.2,21.8 c 0.1,-0.1 2.4,-7.4 6.9,-21.8 l 12.4,0 0,0 z"
       id="path4623" /><path
       style="fill:#9e9d9d"
       class="st1"
       d="m 123.2,30.4 -3.6,-8.8 c 0.6,-0.5 1.2,-1 1.7,-1.5 0.4,-0.4 0.7,-0.8 1,-1.2 l 4.5,1.6 c -0.6,0.8 -1.2,1.6 -1.8,2.2 -0.8,0.9 -1.5,1.6 -2.2,2.1 l -0.8,0.6 0.8,0.6 c 1.1,0.9 2.1,1.6 2.9,2.1 0.8,0.4 1.4,0.7 2,0.8 -0.1,0.1 -0.2,0.1 -0.4,0.2 -0.7,0.3 -1.5,0.7 -2.6,1 l 0,0 c -0.6,0.1 -1,0.2 -1.5,0.3 l 0,0 z"
       id="path4625" /><path
       style="fill:#9e9d9d"
       class="st1"
       d="M 117.5,16.4 115.3,11 c 0,-0.2 -0.1,-0.4 -0.2,-0.5 -0.1,-0.1 -0.1,-0.2 -0.2,-0.3 L 113,5.5 c 0.6,0.1 1.2,0.2 1.8,0.3 0.9,0.2 1.8,0.6 2.6,1.1 l 0,0 c 0.9,0.6 1.5,1.2 2,2 0.4,0.8 0.6,1.6 0.6,2.6 0,0.8 -0.1,1.5 -0.3,2.1 -0.2,0.6 -0.5,1.2 -0.9,1.6 l 0,0 c -0.3,0.4 -0.8,0.8 -1.3,1.2 l 0,0 z"
       id="path4627" /><path
       style="fill:#9e9d9d"
       class="st1"
       d="m 67.2,30 0,-5.4 0,-13 0,-4.2 0,-7 0,-0.4 12.7,0 0,13.1 11.5,0 0,-13.1 12.7,0 0,6.2 c -0.8,0.6 -1.4,1.3 -1.8,2.1 -0.6,1 -0.9,2.2 -0.9,3.5 0,1.1 0.3,2.1 0.8,3.2 0.4,0.7 0.9,1.5 1.5,2.2 -1.7,0.7 -3,1.6 -3.9,2.7 -1.2,1.3 -1.7,2.9 -1.7,4.8 0,1.4 0.3,2.6 0.9,3.7 0.6,1.1 1.4,2 2.5,2.7 l 0,0 c 0.8,0.5 1.7,0.9 2.6,1.2 l 0,4.3 -12.7,0 0,-13.7 -11.5,0 0,13.7 -12.7,0 0,-0.8 0,-5.8 z"
       id="path4629" /><path
       style="fill:#9e9d9d"
       class="st1"
       d="m 104.1,8.4 0,6.8 c -0.2,-0.3 -0.4,-0.6 -0.5,-0.9 -0.4,-0.8 -0.6,-1.7 -0.6,-2.5 0,-1 0.2,-2 0.7,-2.8 0,-0.1 0.2,-0.4 0.4,-0.6 z"
       id="path4631" /><path
       style="fill:#9e9d9d"
       class="st1"
       d="m 104.1,18.8 0,11.8 c -0.7,-0.2 -1.3,-0.5 -1.8,-0.8 l 0,0 c -0.9,-0.6 -1.6,-1.3 -2,-2.1 -0.4,-0.8 -0.7,-1.8 -0.7,-2.9 0,-1.5 0.5,-2.7 1.4,-3.8 0.7,-0.9 1.8,-1.6 3.1,-2.2 z"
       id="path4633" /><path
       style="fill:#325f8c"
       class="st0"
       d="m 113.1,25.4 -4.5,-4.3 c -1.4,0.7 -2.1,1.5 -2.1,2.7 0,0.8 0.3,1.5 1,2 0.6,0.5 1.3,0.7 2.2,0.7 1.1,0 2.2,-0.4 3.4,-1.1 z m 1.5,-13.7 c 0,-0.7 -0.2,-1.2 -0.7,-1.6 -0.5,-0.4 -1.1,-0.6 -1.8,-0.6 -0.6,0 -1.2,0.2 -1.7,0.5 -0.5,0.4 -0.7,0.8 -0.7,1.4 0,0.9 0.7,2 2.2,3.3 1.8,-0.9 2.7,-1.9 2.7,-3 l 0,0 z m 14.5,16.9 c -0.6,0.8 -2,1.5 -4.3,2.2 -2,0.6 -3.6,0.9 -4.9,0.9 -0.5,0 -1.5,-0.7 -2.8,-2 -2.4,1.5 -5.3,2.3 -8.8,2.3 -2.6,0 -4.8,-0.5 -6.5,-1.6 -2,-1.3 -3,-3.2 -3,-5.7 0,-3.3 2.1,-5.7 6.2,-7.1 -1.9,-1.9 -2.9,-3.8 -2.9,-5.7 0,-2.3 1,-4.2 3.1,-5.5 1.8,-1.2 3.9,-1.8 6.4,-1.8 2.4,0 4.4,0.5 6.1,1.6 2,1.3 3,3 3,5.3 0,1.7 -0.5,3.1 -1.4,4.2 -0.8,0.9 -2,1.8 -3.7,2.5 l 3.1,2.9 c 1.5,-1.1 2.5,-2.2 3.1,-3.3 l 6.1,2.2 c -1.7,2.4 -3.3,4.2 -4.8,5.3 2.2,1.8 3.8,2.7 4.7,2.7 0.2,0 0.3,0 0.5,-0.1 l 0.8,0.7 z"
       id="path4635" /></g></svg>